<svg xmlns="http://www.w3.org/2000/svg" id="Layer_1" data-name="Layer 1" viewBox="0 0 44.98 42.58"><defs><style>.cls-1{fill:#00b0f0;}.cls-2,.cls-3{fill:none;stroke-linecap:round;stroke-width:2.1px;}.cls-2{stroke:#fbae1d;}.cls-3{stroke:#00b0f0;}.cls-4{fill:#ccc;}</style></defs><rect x="14.42" y="13.22" width="16.15" height="16.14" rx="6.1"></rect><line class="cls-1" x1="32.26" y1="11.91" x2="43.93" y2="1.1"></line><line class="cls-2" x1="32.26" y1="11.91" x2="43.93" y2="1.1"></line><line class="cls-1" x1="34.19" y1="19.35" x2="43.34" y2="10.87"></line><line class="cls-3" x1="34.19" y1="19.35" x2="43.34" y2="10.87"></line><line class="cls-4" x1="24.87" y1="9.53" x2="34.03" y2="1.05"></line><line class="cls-3" x1="24.87" y1="9.53" x2="34.03" y2="1.05"></line><line class="cls-1" x1="32.26" y1="30.68" x2="43.93" y2="41.48"></line><line class="cls-2" x1="32.26" y1="30.68" x2="43.93" y2="41.48"></line><line class="cls-1" x1="34.19" y1="23.24" x2="43.34" y2="31.71"></line><line class="cls-3" x1="34.19" y1="23.24" x2="43.34" y2="31.71"></line><line class="cls-4" x1="24.87" y1="33.05" x2="34.03" y2="41.53"></line><line class="cls-3" x1="24.87" y1="33.05" x2="34.03" y2="41.53"></line><line class="cls-1" x1="12.72" y1="11.91" x2="1.05" y2="1.1"></line><line class="cls-2" x1="12.72" y1="11.91" x2="1.05" y2="1.1"></line><line class="cls-1" x1="10.79" y1="19.35" x2="1.64" y2="10.87"></line><line class="cls-3" x1="10.79" y1="19.35" x2="1.64" y2="10.87"></line><line class="cls-4" x1="20.1" y1="9.53" x2="10.96" y2="1.05"></line><line class="cls-3" x1="20.1" y1="9.53" x2="10.96" y2="1.05"></line><line class="cls-1" x1="12.72" y1="30.68" x2="1.05" y2="41.48"></line><line class="cls-2" x1="12.72" y1="30.68" x2="1.05" y2="41.48"></line><line class="cls-1" x1="10.79" y1="23.24" x2="1.64" y2="31.71"></line><line class="cls-3" x1="10.79" y1="23.24" x2="1.64" y2="31.71"></line><line class="cls-4" x1="20.1" y1="33.05" x2="10.96" y2="41.53"></line><line class="cls-3" x1="20.1" y1="33.05" x2="10.96" y2="41.53"></line></svg>